<svg width="200" height="200" viewBox="0 0 1000 1000" fill="none" xmlns="http://www.w3.org/2000/svg"><path d="M292 358L38 499.5L292 641" stroke="#BAC2CA" stroke-width="70" stroke-linecap="round" stroke-linejoin="round"/><path d="M292 358L38 499.5L292 641" stroke="url(#paint0_linear)" stroke-width="70" stroke-linecap="round" stroke-linejoin="round"/><path d="M708 641L962 499.5L708 358" stroke="#BAC2CA" stroke-width="70" stroke-linecap="round" stroke-linejoin="round"/><path d="M708 641L962 499.5L708 358" stroke="url(#paint1_linear)" stroke-width="70" stroke-linecap="round" stroke-linejoin="round"/><g filter="url(#filter0_d)"><path fill-rule="evenodd" clip-rule="evenodd" d="M653.732 181.64C685.913 193.591 701.016 226.29 687.466 254.675L433.069 787.605C419.519 815.99 382.448 829.311 350.267 817.36C318.087 805.409 302.984 772.71 316.534 744.325L570.931 211.395C584.481 183.01 621.552 169.689 653.732 181.64Z" fill="#E3B23C"/><path fill-rule="evenodd" clip-rule="evenodd" d="M653.732 181.64C685.913 193.591 701.016 226.29 687.466 254.675L433.069 787.605C419.519 815.99 382.448 829.311 350.267 817.36C318.087 805.409 302.984 772.71 316.534 744.325L570.931 211.395C584.481 183.01 621.552 169.689 653.732 181.64Z" fill="url(#paint2_linear)"/></g><path fill-rule="evenodd" clip-rule="evenodd" d="M606.33 329.201C603.033 341.071 589.452 347.664 575.994 343.927L516 326.5L524.5 308.5L534.5 287.5L587.932 300.941C601.389 304.679 609.626 317.331 606.33 329.201Z" fill="white"/><path fill-rule="evenodd" clip-rule="evenodd" d="M467.015 643.145C463.719 655.015 450.137 661.608 436.68 657.871L367 638.5L377 617.5L386.5 598L448.617 614.885C462.074 618.623 470.312 631.275 467.015 643.145Z" fill="white"/><g filter="url(#filter1_b)"><path fill-rule="evenodd" clip-rule="evenodd" d="M542.984 475.096C539.688 486.966 526.106 493.559 512.649 489.822L447 471L456.5 450.5L466.5 430L524.586 446.837C538.043 450.574 546.28 463.226 542.984 475.096Z" fill="white"/></g><defs><filter id="filter0_d" x="307.563" y="177.256" width="388.874" height="652.489" filterUnits="userSpaceOnUse" color-interpolation-filters="sRGB"><feFlood flood-opacity="0" result="BackgroundImageFix"/><feColorMatrix in="SourceAlpha" type="matrix" values="0 0 0 0 0 0 0 0 0 0 0 0 0 0 0 0 0 0 127 0"/><feOffset dy="4"/><feGaussianBlur stdDeviation="2"/><feColorMatrix type="matrix" values="0 0 0 0 0 0 0 0 0 0 0 0 0 0 0 0 0 0 0.25 0"/><feBlend mode="normal" in2="BackgroundImageFix" result="effect1_dropShadow"/><feBlend mode="normal" in="SourceGraphic" in2="effect1_dropShadow" result="shape"/></filter><filter id="filter1_b" x="442.847" y="423.908" width="110.287" height="76.6809" filterUnits="userSpaceOnUse" color-interpolation-filters="sRGB"><feFlood flood-opacity="0" result="BackgroundImageFix"/><feGaussianBlur in="BackgroundImage" stdDeviation="2"/><feComposite in2="SourceAlpha" operator="in" result="effect1_backgroundBlur"/><feBlend mode="normal" in="SourceGraphic" in2="effect1_backgroundBlur" result="shape"/></filter><linearGradient id="paint0_linear" x1="165" y1="358" x2="165" y2="641" gradientUnits="userSpaceOnUse"><stop stop-color="white" stop-opacity="0"/><stop offset="1" stop-color="white"/></linearGradient><linearGradient id="paint1_linear" x1="835" y1="641" x2="835" y2="358" gradientUnits="userSpaceOnUse"><stop stop-color="#FEFEFE"/><stop offset="1" stop-color="white" stop-opacity="0"/></linearGradient><linearGradient id="paint2_linear" x1="560.267" y1="521.14" x2="448.533" y2="467.803" gradientUnits="userSpaceOnUse"><stop stop-color="#E3B23C"/><stop offset="0.171875" stop-color="white" stop-opacity="0"/></linearGradient></defs></svg>